<svg xmlns="http://www.w3.org/2000/svg" viewBox="0 0 1150.29 221.16"><path d="M401.58 40.49c-1.04 2.96-1.66 5.55-2.83 7.86-1.27 2.49-2.9 4.85-4.65 7.03-1.77 2.21-3.59 4.6-5.91 6.1-6.42 4.16-9.04 11.89-15.56 15.96-1.9 1.18-2.76 3.95-4.59 5.33-4.48 3.37-7.33 8.15-11.14 12.08-5.65 5.83-11.33 11.65-17 17.46-6.64 6.81-14.34 12.56-20.11 20.24-.83 1.1-2.07 1.91-3.19 2.77-6.11 4.65-10.83 10.51-15.3 16.33.89 2.59 2.42 3.48 4.36 3.96 5.66 1.38 11.31 2.75 16.95 4.22 10.21 2.65 20.43 5.28 30.59 8.11 3.46.96 6.74 2.54 10.13 3.75 3.04 1.09 5.6 2.74 7.5 5.68-.6 1.39-.9 2.42-3.28 1.65-5.18-1.68-10.58-2.64-15.86-4.04-3.9-1.03-7.74-2.3-11.62-3.44-2.66-.78-5.54-2.54-7.93-2.03-2.82.61-4.77-1.3-7.19-.97-2.35.33-4.65.58-6.51-1.39-.19-.2-.54-.36-.81-.35-2.44.11-4.88.23-7.31.42-2.55.2-5.06-.19-7.7.71-1.78.61-4.93.05-6.17-1.24-1.86-1.93-3.62-1.1-5.11-1.36-.97 2.74-1.35 5.65-2.86 7.74-3.62 5.02-4.63 10.86-6.2 16.55-.04.13.15.34.1.45-2.82 6.17-.98 13.34-4.2 19.46-.43.83.16 2.13-.04 3.15-.4 2.13-.78 4.32-1.62 6.3-.55 1.29-1.7 2.05-3.38.66-.73-.6-2.37-.1-3.91-.1-1.08-1.76-1.97-3.67-4.72-4.8-4.69-1.91-4.78-3.71-3.54-9.11 1.65-7.19 2.88-14.47 4.63-21.63 1.77-7.28 3.5-14.62 6.07-21.64 3.56-9.73 7.96-19.14 11.85-28.75 1.82-4.5 3.17-9.19 4.94-13.71 4.34-11.11 8.79-22.17 13.23-33.24 2.08-5.19 4.1-10.41 6.41-15.49 2.7-5.94 5.76-11.71 8.53-17.62 1-2.12 1.69-4.4 2.39-6.64.5-1.61.79-3.28 1.28-5.38-2.22.31-4.44.63-6.56.93.78-3.43-2.05-6.05-2.75-9.53 2.22-1.52 3.2-4.32 6.79-4.93 2.61-.44 4.81-3.31 7.36-5.22 1.83.95 3.71 1.98 5.63 2.91 4.96 2.4 5.02 3.95 4.95 9.52-.1 7.5-2.76 14.35-3.99 21.54-.16.93-.3 1.88-.63 2.76-3.43 9.01-6.86 18.01-10.36 26.99-1.92 4.92-4.04 9.77-5.93 14.7-1.99 5.19-3.83 10.45-5.81 15.89.5-.17 1.69-.26 1.84-.69 2.07-6.25 6.86-10.11 12.16-13.17 3.97-2.29 6.31-5.34 7.49-9.57.61-2.18 1.96-3.09 3.81-2.3 3.77-6.1 7.2-11.96 13.37-15.69 2.06-1.24 4.06-3.13 5.2-5.21 1.93-3.5 4.53-5.92 8.39-7.6.18.86.35 1.66.52 2.46 4-1.11 4-1.11 3.87-4.84-.01-.31-.14-.75.01-.9 1.57-1.49 3.45-2.73 4.72-4.43 1.56-2.07 3.12-2.98 6.43-.73-2.62-5.87 2.38-7.76 4.09-11.39.2.91.4 1.82.63 2.91.4-.28.95-.45 1.06-.78.5-1.44.94-2.91 1.29-4.39.96-4.07 4.6-4.21 7.63-5.01.98-.26 2.57.47 3.38 1.26 1.22 1.18 2 2.81 3 4.3 1.14-.23 2.3-.5 3.69-.83zM597.33 218.86c-.62.42-1.38.93-2.46 1.66-.49-.82-.92-1.53-1.26-2.08-1.58-.29-3.12-.62-4.68-.84-2.36-.34-1.51-3.39-3.81-4.19-1.78-.62-3.21-2.55-4.51-4.13-1.26-1.53-2.11-3.38-3.22-5.05-1.37-2.07-1.86-4.12-1.17-6.68.91-3.38 1.53-6.87 1.88-10.36.57-5.7 3.51-10.27 7.25-14.07 1.95-1.98 3.42-4.07 4.16-6.44.69-2.22 2.04-2.42 3.93-2.52.28-2.58 1.38-4.27 3.67-5.66 2.13-1.3 3.56-3.75 5.45-5.85 1.17.13 2.74.31 5.41.61-1.77-2.27-1.31-3.51-.49-5.15.81-1.63 1.64-2.3 3.22-2.79 2.48-.76 4.9-1.72 7.27-2.77.95-.43 1.63-1.41 2.53-2.01.94-.63 2-1.07 2.96-1.67.58-.36 1.08-.86 1.58-1.32 1.36-1.24 2.7-2.5 4.38-4.06.26 1.19.39 1.76.51 2.33 3.47-.55 2.44-5.63 6.72-6.37-.81 1.54-1.34 2.53-1.87 3.53 1.16.97 2.35 1.96 3.91 3.27 1.26-3.6 5.98-3.31 7.31-6.96 3.25-.85 6.49-1.71 9.8-2.58 2.12-6.6 2.65-13.35 3.22-20.17.74-8.82.42-17.73 2.72-26.48.76-2.91.51-6.57.45-9.92-.11-6.07.97-12.16 1.57-18.24.22-2.29.35-4.61.75-6.87 1.52-8.61 3.02-17.23 4.8-25.78.42-2.04 1.9-3.86 3.19-6.35-3.19-.08-6.06-.28-8.91-.18-5.26.18-10.53.43-15.78.84-7 .56-13.99 1.31-20.99 1.96-4.71.44-9.46.71-14.16.99-5.65.34-10.92-2.02-15.22-5.94-.48-.44-.93-1.62-.68-2 .44-.68 1.39-1.39 2.17-1.44 2.96-.19 5.93-.03 8.89-.17 1.8-.08 3.59-.45 5.39-.72.44-.07 1.04-.52 1.28-.37 2.57 1.67 5.19.37 7.6-.13 4.06-.84 8.41.31 12.27-2.07 1.01-.62 2.77.12 4.13-.08 5.85-.88 11.74-1.52 17.59-2.48C661.51.25 667.22 1 672.74 0c1.97 2.61 4.52-.39 6.69.7 2.15 1.08 5.39 1.41 6.36 3.1 1.62 2.8 4.77.63 6.29 3.14-.21.67-.36 1.6-.77 2.41-3.87 7.56-5.43 15.82-7.5 23.94-1.58 6.18-2.13 12.44-2.71 18.74-.14 1.5-1.94 3.35-1.48 4.31 1.37 2.85-1.24 4.86-.87 7.44.39 2.73.32 5.56.21 8.33-.11 2.76.62 5.77-1.94 8.06 2.74 2.71 1.92 6.21.98 8.85-1.48 4.15-.57 8.21-1 12.27-.08.75.33 1.81-.04 2.22-1.78 1.97-1.48 3.94-1.15 6.4.28 2.12.88 4.86-2.46 7.32 2.13-.19 2.99-.12 3.75-.36 5.59-1.74 11.16-3.54 17.14-5.45-.22 2.2-1.22 3.11-2.84 3.52-5.87 1.46-10.58 5.09-15.52 8.29-.77.5-1.48 1.62-1.59 2.53-.48 3.89-1.88 7.65-1.19 11.73.22 1.32-.43 3.44-1.43 4.18-2.58 1.91-1.24 4.38-1.6 6.6-.24 1.48-.42 2.97-.77 4.43-.5 2.13-1.04 4.25-1.72 6.32-.31.94-1.26 1.7-1.47 2.64-.27 1.2-.02 2.5-.13 3.75-.07.7-.34 1.42-.66 2.07-.82 1.65-1.73 3.26-2.57 4.9-.36.7-.47 1.8-1.01 2.08-2.38 1.21-4.52 2.32-1.87 5.26-1.23 2.52-2.32 5.12-3.73 7.53-.93 1.58-2.3 2.89-3.51 4.29-2.24 2.58-4.54 5.1-6.76 7.7-2.05 2.4-4.08 4.73-7.33 5.66-1.12.32-2.76 1.32-2.88 2.18-.53 3.97-3.46 3.82-6.23 4.17-.71.09-1.49.21-2.07.58-3.17 2.09-6.08 5.5-9.47 6.04-3.16.5-5.82 2.12-8.91 2.69-3.45.63-6.75.69-10.14.55-.46-.04-.85-1.23-1.51-2.25zm-.17-35.96c.52 2.51-1.01 4.96-2.23 7.5-2.28 4.73-2.99 9.74-2.48 14.91.09.9 1.09 2.54 1.29 2.48 2.36-.67 4.93.98 7.22-.8 1.03-.8 2.51-1.52 3.76-1.47 3.8.16 6.48-2.08 9.19-4.02 8.24-5.9 17.3-10.94 22.59-20.15 1.56-2.72 3.17-5.42 4.6-8.2 2.41-4.68 5.18-9.26 6.91-14.19 2.77-7.87 4.81-16 7.15-24.03-.29-.24-.58-.48-.88-.72-3.27 2.12-6.92 3.47-9.96 6.06-2.24 1.92-4.64 3.65-7.04 5.37-2.03 1.45-4.31 2.56-6.21 4.15-4.1 3.41-7.75 7.44-12.11 10.47-5.85 4.07-10.41 9.3-15.04 14.52-2.16 2.42-4.17 4.99-6.76 8.12zm37.45-46.19l-.75-.39c-.38.77-.77 1.54-1.15 2.31.22.12.44.23.66.35l1.24-2.27zm21.66 40.16c-.24-.29-.48-.57-.72-.86-.55.39-1.11.77-1.66 1.16.28.34.57.68.85 1.02l1.53-1.32zm-4.69 11.37c.36.3.71.6 1.07.9.55-.64 1.09-1.28 1.64-1.91-.29-.26-.58-.52-.86-.78-.62.59-1.24 1.19-1.85 1.79zm10.48-46.98c1.76-1.22 1.76-1.22 1.21-3.06-.49 1.25-.85 2.15-1.21 3.06zM862.75 167.97c.65-.29 1.31-.57 2.58-1.13l-1 3.15c.22.18.53.56.65.51.68-.31 1.92-.88 1.87-1.07-.51-1.91.82-2.44 2.03-3.24 2.1-1.37 4.16-2.83 6.15-4.36 1.59-1.23 2.55-2.7 1.64-4.91-2.03-4.89-.27-9.96-.34-14.93-.02-1.31 1.77-2.67 2.8-3.95.74-.92 2.22-1.7 2.29-2.62.42-5.23 4-8.53 6.93-12.26.77-.97 1.76-1.91 2.12-3.04 1.75-5.56 6.56-8.27 10.64-11.64 2-1.65 4.27-2.98 6.65-4.61 2.35 1.17 4.81 2.58 7.4 3.66 4.41 1.84 6.92.89 9.64-3.29.23-.35.75-.52 1.38-.93.41.92.75 1.74 1.13 2.54.24.52.61 1.49.78 1.46 3.14-.55 2.07 1.85 2.23 3.27 1.98-.04 5-2.51 4.57 2.24-.05.55 1.25 1.25 1.96 1.84 3.11 2.57 4.12 5.66 2.75 9.59-.57 1.65-.81 3.14 1.18 4.81 2.16 1.8.74 4.11-2.93 4.91 1.23 3.08.03 5.84-.83 8.85-2.73 9.56-9.67 16.05-16.37 22.48-3.88 3.72-9.25 5.91-14.51 7.7-2.29-2.16-5.48 1.48-7.75-1.21-.3-.35-1.41-.5-1.77-.23-2.55 1.86-4.74-.77-7.16-.5-.63.07-1.45-.57-2.01-1.07-2.4-2.13-4.74-4.32-6.99-6.39-5.35 3.99-10.33 8.04-15.64 11.59-5.84 3.9-11.98 7.69-18.85 9.09-3.58.73-7.17 3.38-11.17 1.51-2.96 1.34-5.95.83-9.1.75-9.08-.23-16.73-3.94-24.08-8.54-2.54-1.59-5.24-3.62-4.33-7.56.15-.65-.65-1.66-1.22-2.31-2.2-2.48-2.62-5.34-2.88-8.58-.3-3.79.51-6.98 1.74-10.51 1.27-3.65.94-7.85 1.34-11.81.09-.87-.01-2.05.51-2.54 3.84-3.7 5.66-8.54 7.83-13.21.45-.97 1.1-2.15 1.97-2.55 2.07-.93 2.79-2.01 3.07-4.49.23-2.07 2.52-4 4.09-5.83 1.71-1.98 3.07-4.1 4.33-6.41 1.43-2.64 3.83-4.75 5.71-7.17 3.24-4.18 8.4-6.1 11.79-10.15.7-.83 2.38-.78 3.25-1.53 1.86-1.61 3.43-3.55 5.22-5.25 3.23-3.08 5.74-7.17 10.82-7.73.88-.1 1.93-.53 2.51-1.17 2.91-3.24 5.94-1.71 9.01-.44 2.54 1.05 5.05 2.24 7.67 3.03 3.84 1.15 4.97 2.8 3.35 6.34-1.22 2.68-2.77 5.25-4.48 7.66-5.73 8.06-11.59 16.04-17.44 24.02-.32.44-.99.62-2.1 1.28.25-1.42.16-2.39.58-3.03 4.06-6.17 8.22-12.28 12.32-18.43 1.68-2.52 2.93-5.13.76-8.23-2.49 1.06-4.86 1.15-5.96-2.47-9.29 6.39-17.66 13.02-24.48 21.61-5.46 6.89-11.19 13.57-15.45 21.29-4 7.27-9.15 14.07-10.89 22.34-.79 3.79-2.3 7.43-1.71 11.72.37 2.68-.05 5.67.38 8.61.74 5.06 3.09 8.86 6.85 12.25 2.81 2.53 5.56 3.22 9.06 2.25 1.48-.41 3.12-.69 4.61-.48 2.89.41 5.12-.53 7.23-2.36 1.46-1.27 2.75-3.12 5.26-2.09.46.19 1.62-.4 1.93-.93 1.71-2.98 4.75-3.34 7.55-4.09.97-1.67 1.91-3.27 2.8-4.79 1.75.41 3.14.73 4.75 1.1-1.28 2.18-2.53 4.3-3.76 6.4.93.47 2.13 1.07 3.47 1.74 1.2-1.71 2.41-3.44 3.62-5.17.15-.11.31-.23.45-.36zm33.29-7.45c9.47-5.63 16.14-13.35 20.53-22.89 2.12-4.6 3.36-9.6 4.93-14.44.09-.26-.39-.71-.68-1.22-2.32 2.54-4.46 4.96-6.69 7.3-5.39 5.68-10.6 11.54-16.29 16.91-3.68 3.48-4.03 8.31-1.8 14.34zm21.23-40.87c-2.74-.11-4.29.17-3.77 3.5 1.37-1.27 2.34-2.18 3.77-3.5zM1039.73 140.46c-4.78-2.07-8.43-3.87-12.24-5.24-5.71-2.05-11.91-3.08-17.19-5.89-5.24-2.79-11.39-3.14-16.47-7.54-1.09 4.8-2.2 8.95-2.96 13.17a570.35 570.35 0 0 0-3.46 21.33c-1.16 8.22-2.34 16.45-3 24.72-.22 2.79-2.32 3.53-3.22 5.32-2.26-.46-5.31-1.82-6.12-2.54-1.77-1.55-3.58-3.06-5.34-4.55-.21-1.95.75-3.49.01-5.64-.8-2.32 1.47-5.53 1.74-8.41.34-3.48 3.27-6.76.91-10.53-.37-.6-.06-1.84.3-2.63 1.13-2.53 2.79-4.87 3.54-7.49.63-2.19.29-4.66.35-7.01.02-.86-.35-1.84-.04-2.57 1.65-3.93 2.82-7.9 2.31-12.25-.08-.67.69-1.4.81-2.14.34-2.18 2.58-4.03 1.06-6.59-.26-.44.34-1.49.69-2.19 1.35-2.74 2.15-5.35.09-8.25-.57-.8-.09-2.4.04-3.62.15-1.35.41-2.69.69-4.02.12-.57.27-1.46.65-1.61 3.47-1.43 3.26-5.55 5.72-7.74.46-.41-.28-2-.13-2.99.56-3.68.99-7.41 1.98-10.99 1.08-3.89 2.87-7.58 4.09-11.44 1.28-4.03 2.14-8.19 3.38-12.22.86-2.78 2.06-5.46 3.13-8.17.67-1.69 1.4-3.36 2.29-5.49-4.19-.48-5.69-3.51-7.23-6.39-.33-.62-.1-1.79.3-2.45.2-.33 1.59-.38 2.04-.04 1.83 1.42 3.62 1.82 5.66.55.12-.08.31-.11.45-.08 8.68 1.86 16.8-1.65 25.17-2.69 4.57-.57 9.87-.03 13.08 1.65 1.4-3 4.03-2.71 6.3-1.48 5.48 2.96 11.87 3.55 17.13 7.23 4.14 2.9 5.43 6.35 2.66 10.64-.6.92-1.28 1.82-2.06 2.59-4.68 4.58-9.5 8.91-15.09 12.48-8.6 5.5-16.61 11.93-25.32 17.23-4.34 2.64-7.82 6.68-12.88 8.14-.24.07-.57.26-.62.45-.8 3.27-3.97 4.29-5.97 6.42-2.89 3.07-5.89 6.1-8.38 9.49-4.11 5.61-2.37 13.64 3.03 17.89 3.41 2.68 7.21 4.38 11.06 6.15 2.32 1.07 4.15 1.31 5.99-1.12-.18.88-.35 1.76-.62 3.09 3.51 1.49 7.12 2.97 10.68 4.56 3.29 1.46 6.59 2.93 9.78 4.6 2.96 1.56 5.15 1.22 7.5-1.56.2-.24.39-.63.64-.67 5.64-1.05 7.62-6.44 11.42-9.65 2.31-1.95 4.33-4.26 7.1-7.03.28 1.62.87 2.79.5 3.38-.89 1.43-2.11 2.73-3.42 3.82-1.03.85-2.59.98-2.63 2.9-.02.63-1.21 1.23-1.88 1.84-3.71 3.35-7.42 6.7-11.39 10.29 3.14 2.26 5.92 4.02 8.42 6.11 5.33 4.47 5.24 10.39-.24 14.7-1.8 1.42-4.06 2.23-5.99 3.51-3.75 2.47-7.43 5.03-11.09 7.63-1.25.89-2.16 2.4-4.08 1.35-.31-.17-1.04.41-1.57.64-1.62.7-2.78 2.78-5.06 1.62-.22-.11-1.03.55-1.31 1-1.66 2.72-4.49 3.67-7.14 4.91-.98.46-2.02.8-2.97 1.32-3.26 1.81-6.06 1.61-9.38-.76-5.61.94-4.06-6.11-8.32-6.68-.01-.32-.02-.65-.04-.97 1.02-.76 1.98-1.64 3.07-2.26 5.02-2.86 10.1-5.57 14.72-9.12 2.34-1.8 5.18-2.92 7.71-4.48 4.41-2.71 7.54-6.84 11.17-10.41 1.54-1.47 3.09-2.88 5.49-5.13zm-22.88-72.15c.08-4.62 1.87-7.22 5.93-8.21 1.45-.35 3.4-1.07 3.97-2.2 1.32-2.62 3.89-3.22 5.92-4.67 2.27-1.62 4.52-3.26 6.85-4.8 3.57-2.36 7.35-4.44 10.75-7.02 1.96-1.49 3.36-3.74 5.54-6.26-4.22-.58-7.42-1.18-10.64-1.4-3.09-.22-6.2-.09-9.31-.04-3.29.06-6.59.15-9.88.34-3.14.18-6.34.2-9.39.86-3.03.66-6.42-.81-9.7 1.35 4.6 1.46 4.6 1.46 2.89 5.67-.18.44-.46.91-.43 1.34.28 4.06-2.16 7.55-2.29 11.59-.08 2.39-1.59 4.7-2.13 7.11-.66 3-.33 6.2-2.06 9-.29.47.41 1.55.47 1.75 2.26-1.5 4.56-2.72 6.47-4.38 2.29-1.98 4.4-2.87 7.04-.03zm24.46 76.39c-.28-.28-.56-.56-.83-.84-.97 1.25-1.95 2.5-2.92 3.75.19.15.38.31.57.46 1.06-1.12 2.12-2.24 3.18-3.37zM75.69 30.58c-1.36.26-2.07.39-3.25.62 1.27-3.6 4.1-5.27 6.5-7.34 1.54.37 3 .73 4.88 1.19.7 5.47 1.53 11.09 2.08 16.73.16 1.61-.18 3.43-.82 4.92a1180.9 1180.9 0 0 1-11.14 24.91c-1.42 3.1-3.24 6.01-4.67 9.11-.64 1.38-.49 3.14-1.2 4.47-2.07 3.88-4.5 7.56-6.57 11.43-2.94 5.5-5.86 10.97-7.63 17.06-.93 3.18-3.28 5.94-5.01 8.88-1.85 3.14-3.85 6.21-5.55 9.43-2.34 4.43-4.4 9.01-6.68 13.46-.85 1.66-2.02 3.16-3.04 4.74-.51.79-1.19 1.52-1.52 2.39-2.46 6.58-4.76 13.21-7.28 19.77-1.86 4.83-4.07 9.53-5.94 14.36-.87 2.26-1.3 4.7-2.11 7.7l9.5-5.79c.13-.08.25-.2.4-.25 7.56-2.28 13.15-8.12 20.34-11.18 6.18-2.63 11.95-6.21 17.89-9.4 3.17-1.71 6.3-3.49 9.47-5.21.69-.37 1.44-.64 2.16-.93 2.73-1.12 5.49-2.17 8.2-3.37 3.7-1.64 7.23-3.82 11.07-4.96 4.75-1.4 9.64-2.6 14.76-1.96 2.91.36 3.39.58 3.99 4.27 2.65-2.09 4.85-.4 7.63.65-1.19 1.75-2.23 3.26-2.78 4.06-3.16.72-5.61 1.16-7.98 1.86-2.8.82-5.61 1.67-8.27 2.84-4.52 1.99-8.9 4.27-13.37 6.36-4.9 2.29-9.92 4.35-14.73 6.81-3.57 1.82-6.88 4.14-10.34 6.19-3.58 2.12-7.14 4.31-10.84 6.21-1.72.88-3.56 1.48-5.7 1.61-1.54.1-2.69 2.81-5.05 2.73-.54-.02-1.18.47-1.65.88-2.14 1.86-4.24 3.77-6.21 5.54-2.09-.52-3.86-.96-5.07-1.25-1.12 1.39-2.28 3.48-2.78 3.33-2.72-.8-4.15 1.23-5.86 2.32-2.49 1.59-4.68 3.36-7.97 2.3-.74-.24-1.89.81-2.85 1.26-1.13-.77-2.13-1.89-3.33-2.18-3.67-.88-5-4.1-7.05-6.6-.4-.49-.33-1.45-.32-2.18.09-5.08.19-10.17.36-15.25.04-1.08.14-2.25.57-3.22 2.29-5.11 4.74-10.15 7.04-15.26.54-1.21.53-2.68 1.12-3.86 2.31-4.61 4.92-9.07 7.12-13.73 1.6-3.37 2.67-6.98 4.09-10.44 1.78-4.32 3.54-8.67 5.58-12.87 2.51-5.19 5.29-10.24 7.97-15.35.65-1.24 1.37-2.44 2.04-3.67.82-1.49 1.63-2.99 2.45-4.48.83-1.51 1.34-3.41 2.58-4.43 3.46-2.84 4.35-6.89 5.98-10.69 2.29-5.31 5.03-10.43 7.61-15.61 4.02-8.07 8.68-15.83 12.03-24.24 1.16-2.9 2.21-5.88 3.79-8.55 1.27-2.11 3.24-3.77 5.36-6.14zM435.38 100.58c1.21.45 1.9.71 2.92 1.09-.16-2.08 3.05-3.11 1.23-5.67-.19-.26.53-1.36 1.03-1.88 1.32-1.35 2.58-2.89 4.18-3.82 2.56-1.5 3.29-3.72 3.25-6.35-.02-1.5-.09-3.19 1.49-3.61 3.76-1 4.56-5.05 7.5-6.89.87-.54 1.06-2.17 1.71-3.64 4.02 2.21 7.93 4.24 11.69 6.51.72.44 1.22 1.79 1.25 2.74.12 3.39-.61 6.93.1 10.17 1.13 5.15-.43 10.06-.3 15.08.02.63-1.86 7.98-1.96 8.56-.39 2.11-1.21 4.31-.92 6.34.62 4.3.24 8.3-2.39 12.56 1.92.67 3.36 1.17 5.02 1.75-.07.53-.19 1.42-.32 2.44.46 0 .91.06 1.33-.02.29-.05.54-.33.83-.43 5.1-1.71 4.9-2.82 8.55 2.68-1.85 3.9-3.66 7.72-5.56 11.72-2.67.25-5.64-.56-7.98 1.76-.45.45-1.74.06-2.62.06-.59 6.31 1.21 12.28.63 18.44-.37 3.9.66 7.97 1.35 11.92.41 2.32 0 4.03-2.05 5.24-.4.24-.88.61-1.26.54-2.38-.39-5.04-.36-7.05-1.48-2.32-1.28-4.17-3.5-6.03-5.5-1.91-2.04-2.72-4.52-1.98-7.36.11-.44.2-.97.05-1.37-1.03-2.85-1.39-5.72-1.14-8.78.11-1.42-.73-2.92-1.2-4.58-3.42 1.51-6.43 2.74-9.34 4.16-4.6 2.23-9.05 1.06-13.19-.95-1.43-.69-2.03-3.09-3-4.72-.73-1.21-1.45-2.42-2.41-4.03-1.92 2.64-3.74 5.1-5.5 7.59-2.26 3.19-4.48 6.42-6.74 9.62-.45.64-1.17 1.14-1.46 1.83-2.01 4.71-5.29 8.53-8.52 12.4-3.52 4.22-6.93 8.53-9.16 13.62-1.46 3.34-4.32 4.03-9.39 2.4-.87-.28-1.58-1.03-2.38-1.53-.8-.5-1.62-.97-2.14-1.27 4.22-7.49 8.25-14.07 11.63-20.96 1.23-2.5 3.43-3.45 5.05-5.25 2.29-2.55 4.91-4.81 7.35-7.22.55-.54 1.07-1.16 1.43-1.84.97-1.77 1.74-3.65 2.78-5.37 1.85-3.08 3.86-6.04 3.89-9.87.01-.83.76-1.68 1.25-2.48.24-.39.6-.82 1.01-.97 2.75-1-.97-3.62 1.2-4.71 1.32-.66 3.33.86 4.18-1.34.22-.56.83-1.11.77-1.61-.44-3.86 2.53-5.02 5-6.66 1.26-.84 2.66-1.74 3.45-2.97 2.2-3.42 4.16-7 6.13-10.57.9-1.63 2.21-3.35 2.27-5.06.16-4.25 3.62-6.68 4.49-10.46zm-12.24 46.37c4.47-.99 8-2.72 12.02-2.45 1.24.09 3.01-.69 3.75-1.67 1.74-2.29 3.97-2.72 6.55-3.08 1.22-.17 3.26-1.42 3.25-2.17-.03-3.16 1.83-5.69 2.37-8.5 1.31-6.82 2.96-13.57 4.3-20.38.67-3.39.47-6.95.66-10.43-11.57 15.65-23.32 31.09-32.9 48.68zM747.07 104.64c-2.21 4.76-4.16 8.96-6.3 13.56 4.36 1.05 8.85 2.22 13.39 3.22 3.95.87 6.48 3.09 7.09 7.14.18 1.21 1.28 1.64 1.56 2.17 1.45 2.78 2.7 5.83 3.06 8.9.13 1.06-.66 1.76.85 2.47.57.27.73 1.65.88 2.56.8 4.91 1.51 9.84 2.32 14.75.21 1.27-.27 2.97 1.85 3.3.45.07 1.11.85 1.13 1.33.3 5.61 5.18 7.2 8.56 10.15-1.99 2.48-2.39 2.53-4.32.66-.77-.75-1.64-1.4-2.44-2.12-2.25-2.03-4.5-4.07-6.8-6.16 0 .21.03.81-.01 1.41-.1 1.59-.96 2.18-2.51 1.93-3.27-.53-5.62-2.25-7.56-4.97-3.49-4.89-5.12-10.54-6.86-16.11-1.84-5.89-3.22-11.92-4.97-18.55-6.3 6.07-11.74 11.92-16.21 18.81-2.76 4.25-6.01 8.74-10.59 11.09-5.3 2.72-11.15 4.12-17.03.67-1.86-1.09-4.07-1.65-6.18-2.26-2.39-.69-3.64-2.19-4.25-4.56-1.46-5.66-1.62-10.99.86-16.67 1.34-3.08 2.59-6.47 3.73-9.72 1.78-5.07 4.19-10.43 9.74-13.04.5-.24 1.12-.72 1.24-1.2 1.48-5.93 6.01-9.05 10.85-11.89.41-.24.85-.43 1.27-.64 2.78-1.44 5.64-4.19 8.32-4.03 4.41.26 8.78 2.22 13.02 3.83 2.11.79 3.93 2.43 6.31 3.97zm-40.03 44.63c2.97-2.62 5.16-4.5 7.28-6.46.42-.39.48-1.15.82-1.67 4.01-6.01 8.16-11.93 13.59-16.75 1.86-1.65 4.2-2.76 6.12-4.35 3.6-2.97 3.18-6.8-.81-9.19-1.36-.81-2.63-1.79-4.16-2.84-13.35 10.24-21.12 23.57-22.84 41.26zM202.21 167.9c-1.9-2.13-4.37-4.7-6.61-7.45-1.83-2.25-3.7-4.57-4.99-7.14-1.07-2.14-2.53-12.06-1.94-15.25.72-3.86 2.72-6.98 5.49-9.62 2.24-2.14 4.53-4.29 7.04-6.09 2.9-2.07 5.98-3.88 8.38-6.57.1-.11.26-.22.4-.24 3.61-.38 6.52-1.53 7.25-5.71.09-.54 1.64-.72 2.35-1.27 1.64-1.28 3.82-1.86 4.39-4.49.29-1.31 1.82-2.96 3.11-3.32 6.9-1.95 10.68-7.6 15.1-12.41 1.73-1.88 3.55-2.24 5.75-2.09.49.03.97.4 1.42.68.85.54 1.62 1.21 2.5 1.68 2.16 1.14 4.36 2.19 6.67 3.34-1.07 2.96-2.02 4.87-4.82 5.89-2.07.75-3.88 2.61-5.45 4.3-3.2 3.44-8.05 4.92-10.54 9.21-.55.94-1.88 1.44-2.88 2.1-.24.16-.69.04-.88.22-4.64 4.36-10.94 6.56-14.94 11.86-1.07 1.43-.93 5.18-4.55 3.84-1.44 1.64-2.83 3.33-4.34 4.92-2.12 2.23-4.43 4.3-6.49 6.59-3.57 3.99-3.28 12.09.41 15.95.98 1.02 1.73 2.32 2.85 3.14 1.07.79 2.47 1.12 4.53 1.98 1.78 2.47 4.17 5.81 6.58 9.13.18.25.44.5.72.61 4.73 1.86 7.08 5.02 6.84 10.4-.06 1.42 2.5 2.95 4.14 4.73-.58 3.24-6.77 7.14.75 10.8-.75 1.02-1.39 2.01-2.15 2.91-.9 1.07-2.12 1.92-2.82 3.09-1.29 2.14-2.55 3.97-5.5 3.25-.45-.11-1.04.47-1.59.67-3.02 1.08-6.14 3.19-9.05 2.95-3.73-.31-6.12 1.45-8.37 2.75-3.16-.75-6.13-.87-8.45-2.16-2.67-1.48-5.31-3.64-6.92-6.18-.97-1.53-2.61-3.06-2.87-4.55-.38-2.12.21-4.83 1.38-6.65.74-1.15 3.29-1.14 5.11-1.67-.69-.49-1.79-1.29-3.16-2.27 1.04-1.4 2.13-2.55 2.84-3.9.6-1.15.62-2.58 1.12-3.79.94-2.24-.47-5.93 3.77-6.23.35-.02.61-.9.95-1.36.45-.63.81-1.45 1.43-1.79.98-.54 2.54 1.23 3.34-.94.47-1.25 1.59-2.29 2.7-3.85zm4.33 4.01c-1.31.68-2.54 1.31-3.64 1.88-1.02 8.75-6.31 16.37-6.04 25.55.78.18 1.71.65 2.54.52 5.66-.88 10.97-2.62 15.62-6.17 2.16-1.65 2.82-3.86 2.57-6.23-.41-3.96-1.5-7.72-4.9-10.36-2.11-1.63-4.09-3.43-6.15-5.19zM1121.51 144.69c-.28 1.33-.66 3.13-1.05 4.92-.07.3-.36.73-.25.87 3.59 4.75-1.57 8.3-1.67 12.51-.12 4.99-3.22 8.89-6.06 11.98-4.19 4.56-6.38 10.45-11.04 14.59-2.78 2.46-4.9 5.65-7.54 8.29-2.5 2.5-5.15 4.88-8 6.95-1.09.79-2.89.6-4.55.88-.79-.86-1.72-1.87-2.27-2.48l7.8-11.87c.3.16.6.33.91.49-1.07 2.27-2.14 4.53-3.21 6.8l.25.31c2.3-2.79 4.59-5.58 6.9-8.4-.2-.21-1.31-.84-1.42-1.62-.13-.86.64-1.86 1.37-3.65-2.79 2.2-4.79 3.78-6.93 5.46-.96-5.53 3.09-8.26 5.54-11.75.75-1.07 2.44-1.56 1.55-3.51-.19-.41.95-1.5 1.57-2.19 1.13-1.27 2.33-2.48 2.98-4.32l-4.56 3.99c-.19-.17-.38-.35-.56-.52l10.43-12.22c-.48-.19-1.31-.51-1.81-.71 2.2-4.18 4.57-7.99 6.26-12.07 1.84-4.47 1.93-8.85-4.05-13.53-3.29-2.58-6.95-5.31-8.86-8.84-1.59-2.93-4.74-4.45-5.66-7.53-.94-3.13-1.42-6.39-2.15-9.59-.17-.76-.45-1.51-.76-2.23-2.24-5.18-2.18-12.03.15-17.03.89-1.89 1.62-3.87 2.68-5.67.41-.69 1.52-.97 2.56-1.59.13-1.09.3-2.44.48-3.94 2.46-.62 5.25-.76 5.26-4.18 0-.23.37-.6.63-.66 4.03-.96 5.7-3.88 6.78-7.56.24-.82 1.86-1.67 2.89-1.75 2.92-.2 5.2-.71 5.54-4.3.08-.8 1.47-1.47 2.85-2.76-.09 1.58-.13 2.4-.17 2.97 1.59-1.31 4.06-2.35 4.62-4.02.93-2.82 2.66-3.58 5.09-4.01.59-.1 1.22-.38 1.67-.76 3.12-2.67 6.21-5.38 9.29-8.09.35-.31.73-1.03.95-.97 2.9.71 4-1.81 5.82-4.18 1.73 3.74 3.08 6.65 4.45 9.61 1.16-.26 2.09-.47 4.11-.93-3.42 3.72-5.22 7.08-9 9.32-8.25 4.89-16.26 10.28-23.85 16.14-5.81 4.49-11.22 9.68-16.06 15.2-5.08 5.79-8.04 12.81-7.18 20.84.44 4.14 2.08 7.59 5.2 10.66 5.2 5.13 10.02 10.67 14.74 16.25 2.6 3.12 4.71 6.65 7.34 10.4zm-22.13 32.73c2.63-1.37 2.63-1.37 4.45-4.24a1298.1 1298.1 0 0 1-4.45 4.24zm-4.47 1.11c2.34-1.61 2.34-1.61 2.36-3.86-.97 1.59-1.67 2.72-2.36 3.86zM186.59 97.77c.08.85.36 1.57.15 2.09-1.49 3.67-3.07 7.3-4.65 10.93-.31.72-.88 1.34-1.11 2.08-1.87 5.94-5.11 11.28-7.53 16.97-1.15 2.7-1.68 5.66-2.58 8.47-.75 2.36-1.64 4.68-2.43 7.03-.57 1.72-1.09 3.46-1.61 5.19-.09.29-.01.71-.19.87-3.69 3.27-2.76 8.05-3.95 12.12-.96 3.29-1.62 6.66-2.45 9.99-.88 3.51-2.28 6.91-1.26 10.69.46 1.71-1.09 3.12-2.78 2.63-3.56-1.02-7.09-2.15-10.58-3.39-2.03-.72-3.65-3.76-3.38-6.22.17-1.54.63-3.06 1.05-4.56.21-.75 1-1.52.88-2.15-.87-4.29 1.81-7.84 2.33-11.85.35-2.68 2.08-5.16 2.96-7.81 2.04-6.17 3.54-12.55 5.97-18.55 3.94-9.73 8.42-19.24 12.77-28.8 1.29-2.84 2.83-5.59 4.46-8.25 1.87-3.06 5.52-3.78 7.79-1.05 1.69 2.02 3.72 2.57 6.14 3.57zM198.54 42.72c-.88-3.86 1.71-7.26 4.68-8.96 3.69-2.1 6.75-5.08 10.59-6.87 2.15-1 4.26-2.1 6.68-3.31 1.19 1.44 2.64 2.41 4.62.94.29-.22 1.31.55 2.85 1.25-3.9 2.03-5.42 4.14-5.76 7.06-.07.6-.71 1.32-1.28 1.66-5.38 3.21-7.2 9.66-12.12 13.26-1.77 5.26-6.62 9.07-7.1 14.96-.02.24-.4.46-.76.84-3.93.53-6.61-1.97-9.21-4.42-.68-.64-1.16-2.09-.94-2.97.99-3.89 1.26-8.12 4.19-11.26.75-.78 1.9-1.17 3.56-2.18zM479.84 146.99c1.95-1.96 3.89-3.92 5.84-5.88.43 4.09-2.35 5.31-4.73 6.89-.37-.34-.74-.68-1.11-1.01z"/><path d="M864.85 159.17c-.17 2.85-.17 2.85-4.49 3.27 1.41-1.03 2.82-2.06 4.49-3.27zM1026.5 114.21c-1.88 1.75-3.16 2.95-4.47 4.16 1.05-3.38 1.05-3.38 4.47-4.16zM862.75 167.97c-.14.14-.3.26-.46.36h-3.69c1.97-1.7 3.12-2.7 4.27-3.7.22.14.44.29.66.43-.27.97-.52 1.94-.78 2.91zM230.87 190.81c-.47 2.75-.47 2.75-2.3 4-.69-1.91.18-2.88 2.3-4z"/></svg>