<?xml version="1.0" standalone="no"?>
<!DOCTYPE svg PUBLIC "-//W3C//DTD SVG 20010904//EN"
 "http://www.w3.org/TR/2001/REC-SVG-20010904/DTD/svg10.dtd">
<svg version="1.0" xmlns="http://www.w3.org/2000/svg"
 width="300.000000pt" height="300.000000pt" viewBox="0 0 300.000000 300.000000"
 preserveAspectRatio="xMidYMid meet">
<metadata>
Created by potrace 1.11, written by Peter Selinger 2001-2013
</metadata>
<g transform="translate(0.000000,300.000000) scale(0.100000,-0.100000)"
fill="#000000" stroke="none">
<path d="M2238 2969 c-13 -17 -36 -44 -51 -61 -26 -29 -29 -29 -47 -13 -17 16
-21 15 -61 -12 -47 -31 -91 -34 -254 -17 -133 13 -328 9 -462 -12 -62 -9 -193
-44 -267 -70 -83 -30 -137 -32 -191 -9 -51 22 -72 24 -115 9 -19 -6 -66 -9
-104 -7 -59 4 -68 3 -63 -10 3 -9 9 -33 13 -54 4 -21 19 -65 34 -98 50 -112
66 -206 64 -380 -2 -139 -14 -502 -19 -575 -6 -79 -6 -550 0 -580 13 -67 19
-83 46 -132 24 -44 29 -65 29 -121 0 -130 34 -207 91 -207 42 0 46 20 12 49
-17 14 -36 37 -43 50 -13 26 -17 152 -5 171 4 6 9 24 11 38 2 15 5 43 8 62 2
19 9 55 16 80 7 25 13 52 15 60 2 8 9 35 16 60 13 48 14 51 29 152 14 94 13
128 -4 128 -21 0 -23 -6 -40 -111 -9 -52 -21 -112 -28 -134 -13 -45 -15 -52
-17 -63 0 -5 -11 -8 -23 -8 -19 1 -23 -7 -33 -61 -6 -35 -14 -65 -17 -69 -7
-6 -16 35 -20 81 -4 63 0 484 6 560 24 314 29 647 11 717 -9 31 -17 69 -19 85
-2 15 -9 42 -15 58 -6 17 -20 61 -31 99 -28 91 -21 99 70 79 81 -19 144 -18
201 1 24 8 97 29 163 46 65 16 121 32 125 34 3 2 31 7 61 11 30 3 66 7 80 9
154 21 196 22 330 11 52 -4 118 -9 145 -10 28 -2 50 -4 50 -5 0 -1 14 -4 30
-5 17 -2 60 -6 96 -10 l65 -7 40 46 c39 46 102 78 106 53 0 -7 2 -23 4 -37 2
-14 9 -70 17 -125 8 -55 15 -183 16 -285 4 -309 10 -521 18 -610 12 -135 8
-238 -17 -440 -6 -47 -12 -101 -14 -120 -2 -19 -8 -46 -14 -60 l-10 -25 -12
27 c-12 26 -38 44 -47 34 -3 -3 2 -24 11 -48 27 -70 25 -228 -2 -228 -15 0
-32 42 -42 102 -5 35 -11 72 -14 83 -2 11 -12 56 -21 100 -9 44 -22 103 -30
131 -8 27 -16 77 -19 110 -6 94 -18 164 -27 164 -17 0 -25 -68 -22 -176 2 -88
8 -124 27 -175 13 -35 34 -113 46 -174 13 -60 32 -135 42 -165 28 -78 48 -155
52 -201 3 -33 0 -43 -26 -64 -16 -14 -42 -26 -56 -26 -15 -1 -54 -3 -87 -5
-33 -2 -175 -6 -315 -8 -387 -5 -703 -17 -723 -28 -24 -13 -15 -23 25 -26 18
-2 37 -7 42 -12 5 -5 12 -58 14 -118 l4 -108 -63 -32 c-70 -35 -96 -55 -121
-90 -18 -27 -14 -83 8 -95 9 -5 11 -17 8 -37 -7 -34 2 -80 16 -80 10 0 17 19
25 70 11 65 74 108 138 94 43 -9 57 -30 57 -83 0 -58 24 -88 39 -50 9 24 9 24
21 -9 21 -57 35 -32 32 55 -2 62 1 83 13 93 18 15 20 37 3 43 -15 5 -49 -11
-63 -30 -8 -10 -19 -8 -59 12 -27 14 -58 25 -68 25 -34 0 -94 -33 -118 -66
-28 -37 -41 -43 -35 -16 6 34 42 83 78 108 40 27 68 30 97 12 34 -22 39 -1 29
122 -12 134 -12 181 1 194 14 14 31 -40 24 -77 -3 -17 -7 -33 -9 -36 -3 -2 -1
-9 4 -15 5 -6 11 -36 14 -66 3 -30 9 -70 13 -88 7 -36 9 -36 82 -18 29 6 60
-23 69 -65 8 -40 39 -36 36 5 -5 58 -63 110 -118 103 -33 -4 -55 55 -55 144 0
130 -28 121 389 124 l352 3 9 -24 c5 -12 6 -59 3 -103 -7 -97 4 -194 20 -188
9 3 12 47 12 150 0 159 5 174 51 163 26 -7 26 -8 19 -59 -5 -29 -9 -79 -11
-112 -1 -33 -5 -87 -9 -120 l-7 -60 21 33 c19 29 26 33 55 29 39 -5 79 -30
100 -61 22 -34 45 -124 47 -184 3 -59 14 -77 23 -35 13 62 -18 215 -52 254
-29 35 -75 60 -113 63 -16 1 -30 4 -33 7 -11 11 -13 71 -5 115 5 27 11 66 13
88 5 47 11 54 61 62 69 10 128 58 130 104 0 8 -6 39 -13 68 -12 47 -11 60 7
115 11 34 26 98 35 142 8 44 24 121 35 170 47 219 54 336 38 670 -4 88 -10
291 -12 451 -4 273 -8 359 -21 444 -3 19 -7 68 -9 109 -4 75 -12 91 -47 91 -9
0 -27 -14 -40 -31z"/>
<path d="M1790 2328 c-38 -11 -83 -39 -116 -73 -67 -68 -124 -212 -123 -311 0
-32 -4 -75 -9 -94 l-9 -35 -15 36 c-9 20 -19 51 -23 70 -4 19 -15 48 -25 64
-9 17 -20 42 -24 57 -8 36 -124 164 -175 194 -39 24 -140 51 -176 48 -101 -8
-148 -33 -198 -102 -43 -60 -63 -112 -71 -187 -6 -53 -3 -67 23 -121 44 -93
91 -140 152 -153 141 -30 222 -4 344 112 45 42 84 72 89 67 10 -10 52 -186 56
-230 0 -8 7 -24 15 -34 29 -39 46 0 70 169 9 59 20 73 44 58 11 -7 34 -15 52
-18 17 -3 39 -9 48 -14 18 -9 83 -8 151 4 71 11 149 60 200 122 59 74 68 96
64 159 -5 89 -52 157 -139 203 -44 23 -141 28 -205 9z m180 -53 c43 -22 99
-73 115 -106 34 -65 15 -127 -63 -205 -47 -46 -59 -53 -139 -72 -99 -25 -126
-22 -195 16 -76 43 -92 106 -48 191 82 158 221 232 330 176z m-752 -74 c57
-29 152 -123 152 -149 0 -12 5 -24 10 -27 18 -11 10 -43 -26 -104 -43 -71
-109 -139 -144 -148 -14 -3 -31 -10 -38 -16 -20 -16 -139 0 -177 23 -34 21
-48 38 -91 115 -26 47 -27 65 -9 155 7 36 26 80 35 80 5 0 17 16 29 35 11 20
36 43 53 51 47 21 151 13 206 -15z"/>
<path d="M1794 2148 c-28 -15 -44 -39 -44 -64 0 -31 47 -84 74 -84 21 0 64 24
78 44 37 53 -49 135 -108 104z"/>
<path d="M1076 2057 c-32 -32 -34 -79 -6 -107 41 -41 106 -8 114 58 4 40 -10
60 -51 68 -26 5 -37 1 -57 -19z"/>
<path d="M950 620 c0 -5 7 -10 15 -10 8 0 15 5 15 10 0 6 -7 10 -15 10 -8 0
-15 -4 -15 -10z"/>
<path d="M1842 290 c-23 -11 -42 -21 -42 -23 0 -3 -7 -21 -16 -42 -13 -33 -14
-37 0 -32 8 3 16 1 18 -4 2 -7 13 -7 31 0 47 18 95 14 102 -9 6 -19 8 -116 3
-155 -2 -15 4 -21 23 -23 27 -3 34 8 89 140 9 22 20 34 26 30 20 -13 74 -95
74 -112 0 -9 7 -25 15 -36 15 -18 15 -16 9 26 -9 65 -32 108 -73 136 -47 32
-69 31 -77 -3 -7 -30 -42 -103 -48 -103 -3 0 -4 21 -4 46 0 53 -27 110 -54
118 -11 2 -32 1 -48 -4 -23 -7 -30 -5 -30 6 0 7 11 16 25 20 13 3 29 12 35 19
18 22 -13 25 -58 5z"/>
</g>
</svg>
